<svg width="1280" height="720" xmlns="http://www.w3.org/2000/svg" xmlns:xlink="http://www.w3.org/1999/xlink" overflow="hidden"><defs><clipPath id="clip0"><rect x="0" y="0" width="1280" height="720"/></clipPath></defs><g clip-path="url(#clip0)"><rect x="0" y="0" width="1280" height="720" fill="#FFFFFF"/><path d="M180 162.334 180 652.665C180 689.853 149.853 720 112.666 720L4.57764e-05 720 4.57764e-05 94.9999 112.666 94.9999C149.853 94.9999 180 125.147 180 162.334Z" fill="#D9D9D9" fill-rule="evenodd"/><path d="M180 192.334 180 652.665C180 689.853 149.853 720 112.666 720L6.10352e-05 720 6.10352e-05 125 112.666 125C149.853 125 180 155.147 180 192.334Z" fill="#8C6954" fill-rule="evenodd"/><path d="M180 236.334 180 652.666C180 689.853 149.853 720 112.666 720L6.10352e-05 720 6.10352e-05 169 112.666 169C149.853 169 180 199.146 180 236.334Z" fill="#0D0D0D" fill-rule="evenodd"/><rect x="12" y="611" width="168" height="109" fill="#0D0D0D"/><path d="M12 46C12 22.804 30.804 4 54 4 77.196 4 96 22.804 96 46 96 69.196 77.196 88 54 88 30.804 88 12 69.196 12 46Z" fill="#8C6954" fill-rule="evenodd"/><path d="M215 98.0004C215 85.8499 224.85 76 237 76L382 76C394.15 76 404 85.8499 404 98.0004L404 186C404 198.15 394.15 208 382 208L237 208C224.85 208 215 198.15 215 186Z" fill="#8C6954" fill-rule="evenodd"/><path d="M428 98.0004C428 85.8499 437.85 76 450 76L595 76C607.15 76 617 85.8499 617 98.0004L617 186C617 198.15 607.15 208 595 208L450 208C437.85 208 428 198.15 428 186Z" fill="#8C6954" fill-rule="evenodd"/><path d="M641 98.0004C641 85.8499 650.85 76 663 76L808 76C820.15 76 830 85.8499 830 98.0004L830 186C830 198.15 820.15 208 808 208L663 208C650.85 208 641 198.15 641 186Z" fill="#8C6954" fill-rule="evenodd"/><path d="M854 98.0004C854 85.8499 863.85 76 876 76L1021 76C1033.15 76 1043 85.8499 1043 98.0004L1043 186C1043 198.15 1033.15 208 1021 208L876 208C863.85 208 854 198.15 854 186Z" fill="#8C6954" fill-rule="evenodd"/><path d="M215 256.501C215 237.999 229.999 223 248.501 223L796.499 223C815.001 223 830 237.999 830 256.501L830 390.499C830 409.001 815.001 424 796.499 424L248.501 424C229.999 424 215 409.001 215 390.499Z" fill="#8C6954" fill-rule="evenodd"/><path d="M215 472.501C215 453.999 229.999 439 248.501 439L796.499 439C815.001 439 830 453.999 830 472.501L830 606.499C830 625.001 815.001 640 796.499 640L248.501 640C229.999 640 215 625.001 215 606.499Z" fill="#8C6954" fill-rule="evenodd"/><path d="M854 254.501C854 237.103 868.103 223 885.501 223L1011.5 223C1028.9 223 1043 237.103 1043 254.501L1043 608.499C1043 625.897 1028.9 640 1011.5 640L885.501 640C868.103 640 854 625.897 854 608.499Z" fill="#8C6954" fill-rule="evenodd"/><path d="M1067 98.0004C1067 85.8499 1076.85 76 1089 76L1234 76C1246.15 76 1256 85.8499 1256 98.0004L1256 186C1256 198.15 1246.15 208 1234 208L1089 208C1076.85 208 1067 198.15 1067 186Z" fill="#8C6954" fill-rule="evenodd"/><path d="M1067 245.167C1067 232.925 1076.92 223 1089.17 223L1233.83 223C1246.08 223 1256 232.925 1256 245.167L1256 333.833C1256 346.076 1246.08 356 1233.83 356L1089.17 356C1076.92 356 1067 346.076 1067 333.833Z" fill="#8C6954" fill-rule="evenodd"/><path d="M736.5 0 1280 0 1280 32.5003C1280 50.4497 1265.45 65.0006 1247.5 65.0006L704 65 704 32.5003C704 14.5509 718.551-9.1666e-15 736.5-9.1666e-15Z" fill="#8C6954" fill-rule="evenodd"/><path d="M783.5 0 1280 0 1280 32.5003C1280 50.4497 1265.45 65.0006 1247.5 65.0006L751 65 751 32.5003C751 14.5509 765.551-8.41862e-15 783.5-8.41862e-15Z" fill="#0D0D0D" fill-rule="evenodd"/><rect x="1168" y="8" width="112" height="57" fill="#0D0D0D"/></g></svg>